# xmcd
#
# Track frame offsets:
#	150
#	18475
#	24647
#	31875
#	40995
#	61302
#	79437
#	87515
#	97242
#	106227
#	114082
#	121017
#	128072
#	133407
#	141625
#	150352
#	164225
#	175177
#	182792
#	191400
#	200052
#	208360
#	220370
#	228717
#	236705
#	252790
#	260190
#	271775
#	286780
#	294347
#
# Disc length: 3997 seconds
#
# Revision: 1
# Processed by: cddbd v1.5.1PL0 Copyright (c) Steve Scherf et al.
# Submitted via: CDex 1.50Beta5
#
DISCID=ce0f9b1e
DTITLE=大和田りつこ - 新・こどものうた大全集 Disc 2
DYEAR=1995
DGENRE=
TTITLE0=天地総子/大きなくりの木の下で
TTITLE1=森みゆき/やぎさんゆうびん
TTITLE2=平野レミ/サッちゃん
TTITLE3=森みゆき/あめふりくまのこ
TTITLE4=太田美鈴/はじめてのチュウ
TTITLE5=秋山カズ/となりのトトロ
TTITLE6=たいらいさお/こまったゾウ
TTITLE7=たいらいさお/ヤンチャリカ
TTITLE8=大和田りつこ/いつもいっしょに
TTITLE9=松本純一/おおきくなったら
TTITLE10=大和田りつこ/りんご みかん バナナ
TTITLE11=森みゆき/シンデレラのスープ
TTITLE12=春口まさ子/くじらのバス
TTITLE13=森みゆき/おはなしゆびさん
TTITLE14=春口まさ子/ドロップスのうた
TTITLE15=佐藤幸子/ドラえもんのうた
TTITLE16=服部恭子/南の島のハメハメハ大王
TTITLE17=大和田りつこ/シャベルでホイ
TTITLE18=木田和郎/ぞうさんのぼうし
TTITLE19=森みゆき/森のファミリーレストラン
TTITLE20=川辺智子/おんまはみんな
TTITLE21=森みゆき/ドレミのうた
TTITLE22=服部恭子/とんでったバナナ
TTITLE23=松山ジョージ/あつまれ!ファンファンファン
TTITLE24=池末Shin/ふねがゆく
TTITLE25=川辺晶子/インディアンがとおる
TTITLE26=木村真美/2100ねんガチャピンキッド
TTITLE27=川辺晶子/みんなともだち
TTITLE28=佐藤幸子/さよならマーチ
TTITLE29=一之瀬洋一/ドレミファれっしゃ
EXTD=
EXTT0=
EXTT1=
EXTT2=
EXTT3=
EXTT4=
EXTT5=
EXTT6=
EXTT7=
EXTT8=
EXTT9=
EXTT10=
EXTT11=
EXTT12=
EXTT13=
EXTT14=
EXTT15=
EXTT16=
EXTT17=
EXTT18=
EXTT19=
EXTT20=
EXTT21=
EXTT22=
EXTT23=
EXTT24=
EXTT25=
EXTT26=
EXTT27=
EXTT28=
EXTT29=
PLAYORDER=
